<mxfile host="app.diagrams.net" modified="2024-05-20T07:34:18.587Z" agent="Mozilla/5.0 (Macintosh; Intel Mac OS X 10_15_7) AppleWebKit/537.36 (KHTML, like Gecko) Chrome/124.0.0.0 Safari/537.36" version="24.3.1" etag="n2zndT6G4JtPa8LctJTq" type="github">
  <diagram name="第 1 页" id="e0Bh3IsNrtWSL05pXz32">
    <mxGraphModel>
      <root>
        <mxCell id="0" />
        <mxCell id="1" parent="0" />
      </root>
    </mxGraphModel>
  </diagram>
</mxfile>
